PathFileType	4	(X/Y/Z)	Patient4_TMGait_0pt4_02_left_19.trc.trc
DataRate	CameraRate	NumFrames	NumMarkers	Units	OrigDataRate	OrigDataStartFrame	OrigNumFrames
76.086956521739	76.086956521739	4	33	mm	76.086956521739	106	       141
Frame#	Time	Sacral			L.Shoulder			Chest			R.Shoulder			Neck			R.ASIS			L.ASIS			R.Thigh.Superior			R.Thigh.Lateral			R.Thigh.Inferior			R.Patella			L.Thigh.Superior			L.Thigh.Lateral			L.Thigh.Inferior			L.Patella			L.Shank.Superior			L.Shank.Lateral			L.Shank.Inferior			R.Shank.Superior			R.Shank.Lateral			R.Shank.Inferior			R.Heel			R.Midfoot.Superior			R.Midfoot.Lateral			R.Toe			L.Heel			L.Midfoot.Lateral			L.Midfoot.Superior			L.Toe			L.Elbow			L.Wrist			R.Elbow			R.Wrist			
		X1	Y1	Z1	X2	Y2	Z2	X3	Y3	Z3	X4	Y4	Z4	X5	Y5	Z5	X6	Y6	Z6	X7	Y7	Z7	X8	Y8	Z8	X9	Y9	Z9	X10	Y10	Z10	X11	Y11	Z11	X12	Y12	Z12	X13	Y13	Z13	X14	Y14	Z14	X15	Y15	Z15	X16	Y16	Z16	X17	Y17	Z17	X18	Y18	Z18	X19	Y19	Z19	X20	Y20	Z20	X21	Y21	Z21	X22	Y22	Z22	X23	Y23	Z23	X24	Y24	Z24	X25	Y25	Z25	X26	Y26	Z26	X27	Y27	Z27	X28	Y28	Z28	X29	Y29	Z29	X30	Y30	Z30	X31	Y31	Z31	X32	Y32	Z32	X33	Y33	Z33	

106	26.860000000000	882.287820541271	1002.918894834936	552.339128111410	1034.852253352075	1436.870985892261	361.393967900793	1153.177801313425	1371.104797251295	512.324677874449	1084.884917835479	1440.648328147615	694.181944710683	1030.876082737905	1497.904776180338	519.178212747408	1119.098936316724	948.462355810670	655.045550919323	1087.110994812568	966.687415037040	381.349283507214	1144.036531622625	742.130251775641	623.501169119839	1057.823031045008	634.749474395820	686.165989672882	1128.056569173569	580.423039091312	604.619537475611	1121.854421891881	494.245959604640	609.907711768934	1171.705350631569	785.354915439367	398.259964096548	1124.889478000901	659.143739599619	314.522688935544	1232.575742927695	601.075382183665	368.477295129016	1257.649149681894	527.821785725752	357.398800289691	1225.912144482637	453.321243949358	345.432783352778	1127.811909563142	345.156102470512	295.038187362631	1193.143661965379	225.954654846124	338.427630155518	1092.672716014512	405.152130671687	614.372540814985	1019.210550988417	301.294189859921	674.224223872578	1060.116001829435	207.535338200595	606.906711638707	924.178627915465	43.113104281648	572.919978281710	1096.677546107388	97.930191563996	606.066666241252	1009.387545979065	36.777295764182	645.698795591104	1217.141319514715	45.484471947599	628.102863219658	1076.820184745525	61.900302603406	376.923063804823	1140.745993850246	64.504871664519	288.788377685674	1225.111450668217	128.549981064855	307.737111629524	1348.221232914705	84.231187515778	260.745193023807	968.257814347613	1086.411429406591	257.592925500365	1000.500580810953	827.858676205597	239.822240392461	1160.462143592408	1108.481498035927	830.859243003172	1388.502705508895	991.111323044929	795.624874289255	
107	26.873142857143	881.791739190126	1002.974610071659	552.610312231332	1034.156785428682	1436.976091265893	361.555539024338	1152.999844169756	1370.762350673261	511.850759958764	1085.629026904098	1440.107648940502	694.122798260554	1030.893670218883	1497.745538632344	519.367626200018	1118.592204062666	948.186547893947	654.573920390744	1085.990039060402	966.383895827148	380.916470981315	1141.950771503672	741.509883999811	623.157204486880	1054.944473281370	634.666877440193	685.982936339122	1124.315838275638	579.939357565236	604.235890736770	1117.472288562739	493.978260201194	609.448043286321	1169.171637096881	784.432802574950	397.405557217784	1122.177892832841	658.835848106766	312.891957571813	1229.665203409696	600.542594523503	367.303677181520	1255.686934649384	529.375026063166	356.355482587553	1227.422560198105	455.437854662501	343.978128161318	1135.827597482586	342.534158314378	292.035704189287	1207.173162702563	226.610105231703	335.497698731223	1088.217239919271	404.898292814237	613.987264348570	1014.720927030580	301.191768587585	674.049060663625	1055.234939015297	207.365976645760	606.636659987994	918.864404835390	43.075595121960	572.892330660694	1091.387088697734	97.811522887241	605.918689834433	1004.079544681890	36.797058597181	645.685959137115	1211.826216302775	45.439260633704	628.116567161181	1099.190127821773	56.967698580210	372.389261344733	1164.191929160872	62.235794369416	285.105102165540	1245.271761821329	130.161529631324	304.826812538320	1370.920214693670	91.302976261624	259.721255898031	960.496125379251	1088.054085877533	258.496966457346	985.739287496422	828.703246636439	242.337046416421	1166.653604653418	1109.379478885138	829.887731489037	1399.885545742526	1005.225002179417	790.186335600359	
108	26.886285714286	881.284434067623	1002.986257815847	552.714504290169	1033.569288838224	1436.986128449677	361.487906930787	1152.856258064850	1370.362903412351	511.219247693903	1086.323484859214	1439.548457777794	693.855619305042	1030.937511824323	1497.530148035409	519.330848768044	1118.086293758588	947.832948007092	653.995752492342	1084.878242091473	966.007966228090	380.377892438259	1139.964571463271	740.819844176622	622.608095861875	1052.246412941028	634.507809534891	685.614441082445	1120.686429932609	579.411937675340	603.586866321222	1113.218032662183	493.663890775842	608.688273957382	1166.633840580678	783.350683146436	396.529683511202	1119.339542638858	658.400703891840	311.268814181820	1226.704514230184	599.833676664404	365.990764341254	1253.529944949207	530.695204664203	355.370910527545	1228.553257629548	457.478640169833	342.684391340810	1143.414879743488	340.407310188538	289.129873735215	1220.150447084260	227.894543301538	332.906427381760	1083.886243721981	404.596606227658	613.371738473926	1010.418202549423	301.054763162969	673.773374511853	1050.416193992319	207.150682426290	606.219778699852	913.550366041249	43.023106677511	572.851816188798	1086.067811479158	97.682092839740	605.725488023936	998.767301642482	36.819361469221	645.663270789176	1206.508767480686	45.396921082644	628.120856216744	1120.076658914770	53.541939406814	368.065070874983	1186.348635020800	61.062048915252	281.857478410004	1264.144708199633	132.455926994864	302.460120320672	1392.070639700379	98.591784527558	259.784057151270	952.922353002366	1089.693414109823	259.408540403925	971.721251441565	829.792304916188	244.682442341345	1172.430965229249	1110.182656715786	828.513408564626	1410.019546792997	1019.572198983908	784.372934726146	
109	26.899428571429	880.769701966937	1002.973381267905	552.672671912745	1033.061450343615	1436.914203618110	361.191912177639	1152.742442994857	1369.930546732278	510.419764874924	1086.988669514809	1439.007627668867	693.374192040418	1031.004407872564	1497.275969146085	519.070720749897	1117.608437886401	947.415138660167	653.288371696122	1083.756368427063	965.599994651115	379.714878925499	1138.073680252801	740.075795966173	621.814715921036	1049.742923210034	634.285978712343	685.060648804033	1117.179192686704	578.845595404013	602.676577106687	1109.104372715689	493.304680788201	607.654666550728	1164.186635835294	782.230929736502	395.616782426478	1116.492000327208	657.889663890291	309.710021320768	1223.838853783467	599.050200430899	364.554232574807	1251.324767534441	531.832374619110	354.433420613412	1229.380875521272	459.423810035418	341.537761438082	1150.420001956217	338.770635654626	286.445707485949	1231.896464484095	229.662508305842	330.695366524317	1079.676222111004	404.253802965569	612.549182226561	1006.285559907424	300.895292439811	673.408785734065	1045.652112056150	206.899029721093	605.678635367330	908.237451633512	42.962672111901	572.802582682195	1080.726491413549	97.551883195284	605.505015932281	993.451835934564	36.842505461509	645.633314040613	1201.191717105361	45.354612462392	628.118781967172	1139.134462528324	51.426148895246	364.153226306240	1206.772641382916	60.804295640784	279.143627386564	1281.397448028762	135.247265953277	300.632236635790	1411.324842280681	105.867052282937	260.701940827776	945.626481196214	1091.299949790275	260.322241272838	958.467829573613	831.048502395161	246.798220521948	1177.798844207744	1110.919333905295	826.757489052842	1418.873643418849	1034.078568341666	778.230332437040	
